<svg width="1373" height="3214" viewBox="0 0 1373 3214" fill="none" xmlns="http://www.w3.org/2000/svg">
<path d="M326 1511.5L347.5 1353.5L941 1356L958.5 1489L941 1547.5L767 1580.5L509.5 1566L326 1511.5Z" fill="white"/>
<path fill-rule="evenodd" clip-rule="evenodd" d="M737.247 1260.42L736.096 1260.1C738.435 1264.22 739.421 1265.57 737.247 1260.42ZM688.006 1246.43L736.096 1260.1C735.996 1259.92 735.894 1259.74 735.79 1259.56C736.257 1259.86 736.742 1260.15 737.247 1260.42C748.46 1266.51 762.302 1259.89 769.253 1250.09C839.345 1253.1 894.917 1254.96 910.192 1253.98C912.5 1267.37 914.935 1280.75 917.37 1294.13C925.143 1336.84 932.918 1379.56 936.568 1422.9C936.839 1425.58 937.119 1428.27 937.401 1430.98C941.042 1466.03 944.958 1503.73 933.841 1537.09C933.08 1539.13 933.21 1541.39 933.951 1543.48C929.112 1544.11 924.253 1544.97 919.39 1545.84C918.08 1546.07 916.77 1546.3 915.46 1546.53C914.794 1544.18 910.997 1544.83 911.24 1547.32C883.416 1553.17 855.395 1558.11 827.17 1561.63C666.003 1582.8 501.866 1561.91 347.23 1513.81C346.691 1513.09 345.67 1512.72 344.92 1513.1C342.82 1512.45 340.71 1511.81 338.6 1511.2C338.611 1511.06 338.621 1510.92 338.621 1510.78L338.831 1510.9L339.164 1507.35C344.229 1455.21 349.189 1397.2 353.96 1341.42C354.978 1329.51 355.988 1317.71 356.988 1306.08C360.997 1283.92 364.725 1261.73 367.937 1239.51C386.132 1241.96 408.144 1242.58 427.752 1243.12C439.738 1243.46 450.825 1243.76 459.594 1244.45C470.958 1245.13 482.345 1245.9 493.742 1246.68C521.286 1248.56 548.885 1250.43 576.349 1250.92C579.289 1257.47 588.939 1259.43 595.352 1257.02C620.155 1258.64 650.378 1252.01 675.374 1245.84C679.597 1246.04 683.809 1246.24 688.006 1246.43ZM726.629 1248.21C728.798 1252.7 731.559 1256.79 735.79 1259.56C734.158 1256.66 731.961 1252.61 729.73 1248.49C729.705 1248.44 729.679 1248.4 729.653 1248.35C743.231 1248.96 756.483 1249.54 769.253 1250.09C770.526 1248.3 771.568 1246.39 772.321 1244.44C800.445 1243.87 828.385 1246.43 856.315 1248.99C874.212 1250.63 892.105 1252.27 910.04 1253.09C910.09 1253.38 910.141 1253.68 910.192 1253.98C912.848 1253.81 914.286 1253.55 914.37 1253.19C941.866 1318.08 979.136 1482.74 953.89 1547.02C955.752 1555.79 935.985 1560.73 924.766 1563.53C922.475 1564.11 920.541 1564.59 919.22 1565C925.5 1602.53 924.13 1641.19 921.422 1678.99C896.061 2001.4 891.248 2325.59 917.93 2648.08C919.5 2668.18 921.191 2688.28 922.98 2708.37L924.063 2720.42C925.482 2736.46 926.688 2752.43 926.32 2768.6C926.201 2774.21 921.55 2777.58 916.9 2777.87C904.417 2785.84 888.51 2787.49 873.402 2789.06L873.4 2789.06H873.399C869.606 2789.45 865.864 2789.84 862.24 2790.32C863.294 2796.08 864.196 2802.9 865.132 2809.99L865.132 2809.99C867.028 2824.34 869.065 2839.76 872.804 2849.57C884.43 2846.53 891.923 2857.37 880.336 2863.49C889.222 2868.42 895.42 2876.16 901.591 2883.87C905.326 2888.53 909.05 2893.18 913.355 2897.19C944.718 2884.46 950.558 2903.49 924.929 2907.83C931.897 2913.65 939.294 2919.02 946.941 2924.12L947.484 2924.05C949.508 2923.74 951.934 2923.13 954.527 2922.47L954.528 2922.47C963.519 2920.2 974.529 2917.41 977.852 2925.1C979.773 2932.27 970.924 2934.55 964.514 2935.42C970.202 2939 975.909 2942.57 981.617 2946.13C983.363 2945.36 985.104 2944.53 986.849 2943.69L986.856 2943.69C990.098 2942.13 993.349 2940.57 996.659 2939.43C1009.2 2936.64 1010.28 2952.91 993.917 2953.82C998.367 2957.11 1003.55 2958.15 1008.53 2959.15C1015.02 2960.45 1021.16 2961.67 1024.87 2967.72C1048.84 2977.4 1060.17 3006.63 1054.57 3029.99C1062.99 3037.48 1068.9 3048.7 1069.58 3059.97C1071.2 3072.05 1061.59 3083.42 1048.57 3086.6C1033.9 3091.48 1019.02 3095.93 1004.18 3100.12L1002.63 3100.66C990.399 3104.83 977.044 3108.56 964.325 3107.83C888.895 3103.33 788.309 3072.35 727.935 3033.79C712.877 3022.47 710.244 2994.48 730.968 2985.53C722.497 2970.17 725.129 2958.54 728.657 2942.95L728.659 2942.94L728.664 2942.92C729.111 2940.94 729.573 2938.9 730.029 2936.78C732.84 2924.48 736.657 2911.86 743.566 2900.48C744.179 2899.47 745.653 2899.77 745.735 2900.77C746.55 2912.37 745.654 2924.22 744.767 2935.94L744.767 2935.94C744.67 2937.21 744.574 2938.48 744.48 2939.75L744.375 2941.19C744.165 2944.11 743.892 2946.57 743.646 2948.79C742.88 2955.7 742.37 2960.3 744.822 2968.85C750.667 2990.6 794.57 3004.15 828.436 3014.59C839.519 3018.01 849.527 3021.1 856.775 3024.04C879.85 3031.18 903.277 3037.59 927.033 3043.21L928.775 3043.59C932.214 3044.35 935.671 3045.17 939.144 3046L939.146 3046C955.926 3050 973.101 3054.09 990.6 3051.21C995.806 3047.43 1002.25 3045.95 1008.74 3044.46L1008.74 3044.46C1015.9 3042.81 1023.11 3041.15 1028.76 3036.37C1044.99 3018.84 1032.23 2993.14 1020.85 2977.21C1012.06 2980.01 1004.28 2974.54 997.381 2969.68C995.65 2968.46 993.974 2967.28 992.35 2966.28L992.051 2966.1C987.913 2963.48 983.78 2963.09 979.646 2962.7C975.518 2962.31 971.389 2961.92 967.252 2959.31L965.381 2959.67C959.467 2960.79 953.813 2961.95 948.898 2962.96L948.896 2962.96L948.894 2962.96L948.893 2962.96C928.52 2967.13 920.833 2968.71 959.925 2954.73C951.932 2949.73 943.919 2944.69 936.155 2939.39C928.702 2940.29 920.915 2942.6 913.222 2944.88L913.221 2944.88C904.464 2947.48 895.829 2950.04 887.945 2950.44C897.442 2941.59 910.234 2936.51 922.504 2931.63L922.505 2931.63L923.772 2931.12L924.326 2930.9C916.866 2925.24 909.767 2919.18 903.417 2912.51L897.351 2914.02C860.085 2923.28 845.436 2925.95 895.606 2903.38C890.951 2898.21 888.135 2891.87 885.32 2885.53C882.169 2878.43 879.018 2871.34 873.288 2865.9C855.842 2869.55 839.812 2877.22 825.603 2887.13C820.348 2890.89 816.28 2895.51 812.142 2900.21L812.141 2900.21L812.117 2900.24L811.984 2900.39L811.405 2901.05L810.978 2901.53C789.413 2929.28 756.005 2933.56 745.799 2897.57C745.622 2896.83 746.779 2896.37 747.105 2897L747.143 2897.09C752.024 2908.14 767.774 2917.1 780.93 2910.23L781.328 2910.02C789.303 2905.86 794.631 2899.02 799.943 2892.21C803.2 2888.03 806.451 2883.86 810.303 2880.31C823.979 2867.97 841.121 2859.69 858.808 2853.47C854.52 2837.81 853.073 2809.28 853.56 2790.9C823.78 2792.31 793.805 2790.87 764.55 2785.21C767.348 2805.61 767.377 2829.68 767.405 2852.26C767.424 2867.49 767.442 2882.05 768.31 2894.33C771.424 2904.55 752.48 2910.95 750.466 2900.76C749.353 2867.79 752.578 2820.23 757.6 2783.43L755.498 2782.92C753.515 2782.43 751.431 2781.83 749.73 2780.87C736.051 2782.42 735.057 2757.51 734.306 2738.69C734.026 2731.68 733.78 2725.51 732.925 2721.87C716.449 2491.72 685.793 2263.17 655.14 2034.65L655.137 2034.63C646.384 1969.37 637.632 1904.12 629.21 1838.83C624.061 1836.86 623.059 1830.63 622.204 1825.31L622.15 1824.97C586.531 1849.08 572.174 1891.14 558.312 1931.74L558.311 1931.74L558.311 1931.74C553.578 1945.6 548.903 1959.3 543.46 1972.05C478.861 2151.46 438.977 2337.7 399.106 2523.87C381.325 2606.9 363.547 2689.91 343.581 2772.3L343.937 2772.39C344.191 2772.47 344.193 2772.51 343.662 2772.47L343.54 2772.46V2772.48C347.54 2773.01 350.691 2777.21 348.25 2781.12C342.122 2793.49 326.866 2791.78 314.258 2790.36L314.256 2790.36C311.869 2790.1 309.577 2789.84 307.46 2789.69C308.014 2799.41 307.437 2813.96 306.84 2829L306.84 2829C306.047 2849.01 305.219 2869.89 306.974 2881.41C321.48 2881.68 323.974 2895.83 325.859 2906.52C326.106 2907.92 326.342 2909.26 326.594 2910.5L326.762 2911.6C327.39 2915.58 328.339 2920.3 329.367 2925.42C333.084 2943.92 337.827 2967.54 332.126 2979.15C343.377 2992.54 335.284 3010.73 323.612 3019.87C315 3026.23 304.935 3030.78 294.887 3035.32L294.886 3035.32L294.878 3035.33C290.345 3037.37 285.817 3039.42 281.426 3041.63C265.155 3048.21 249.013 3056.27 232.718 3064.42L232.717 3064.42C182.416 3089.55 130.652 3115.42 69.1016 3100.37L65.5538 3099.62C8.44025 3087.55 -7.96895 3082.19 3.37357 3025.66C-1.28443 3014.17 -1.31543 3001.59 5.23857 2991.43C13.1136 2981.32 24.5978 2974.3 36.0321 2967.31L36.0339 2967.31L36.0349 2967.31C41.5702 2963.92 47.0938 2960.54 52.1906 2956.83C63.5062 2949.22 75.1329 2942.03 86.7566 2934.84L86.7616 2934.83L86.769 2934.83L86.7701 2934.83L86.771 2934.83C102.33 2925.2 117.883 2915.57 132.678 2904.98C131.717 2904.15 133.051 2903.84 133.835 2903.98C144.46 2895.66 148.318 2883.8 152.202 2871.86C154.987 2863.29 157.785 2854.69 163.1 2847.32C166.283 2838.23 182.356 2836.02 192.941 2837.28C189.634 2820.33 205.789 2743.2 207.841 2797.68L207.84 2798.46C207.848 2800.18 207.912 2802.71 207.987 2805.71C208.281 2817.39 208.752 2836.08 206.781 2840.45C240.219 2850.67 248.695 2881.74 255.918 2908.21C256.284 2909.55 256.647 2910.88 257.01 2912.2L257.494 2912.33C257.778 2912.4 258.074 2912.47 258.377 2912.55C260.628 2913.09 263.251 2913.73 264.309 2915.8C270.103 2912.12 273.755 2906.61 277.415 2901.09C280.892 2895.84 284.375 2890.59 289.706 2886.88C286.637 2884.48 286.475 2879.9 288.041 2876.35C290.179 2868.51 291.959 2855.58 293.873 2841.67C296.519 2822.45 299.423 2801.35 303.89 2789.24C293.968 2787.75 283.996 2786.47 274.017 2785.18L274.014 2785.18C247.618 2781.78 221.183 2778.37 195.55 2771.23C190.96 2775.74 181.54 2774.14 181.91 2766C192.85 2588.64 211.666 2411.83 235.385 2235.74C246.853 2138.81 263.443 2042.61 280.024 1946.45C291.638 1879.1 303.248 1811.77 313.092 1744.23L313.294 1721.73C313.939 1654.08 315.746 1585.42 340.97 1521.73C338.75 1520.76 336.55 1519.76 334.38 1518.71C312.702 1527.7 321.742 1486.29 326.925 1462.54L326.926 1462.54C328.282 1456.32 329.375 1451.32 329.584 1448.74C333.497 1427.78 337.614 1406.82 341.733 1385.85L341.733 1385.85L341.733 1385.85L341.733 1385.85C346.951 1359.28 352.172 1332.7 356.988 1306.08C358.002 1294.29 359.006 1282.69 360 1271.35C361.08 1261.41 357.936 1256.65 354.386 1251.27C351.666 1247.15 348.708 1242.67 347.23 1235.22C353.117 1237.07 360.18 1238.46 367.937 1239.51C368.282 1237.12 368.62 1234.74 368.953 1232.35C364.726 1230.83 452.163 1235.07 558.2 1240.22C595.998 1242.05 636.159 1244 675.374 1245.84C677.281 1245.37 679.158 1244.91 681 1244.44L688.006 1246.43C701.068 1247.04 713.984 1247.64 726.629 1248.21ZM914.37 1253.19C914.385 1253.13 914.357 1253.07 914.287 1253L914.37 1253.19ZM726.629 1248.21C725.309 1245.48 724.208 1242.6 723.128 1239.77C722.538 1238.22 721.954 1236.7 721.345 1235.22C717.565 1226.05 723.703 1237.37 729.653 1248.35C728.647 1248.3 727.638 1248.26 726.629 1248.21ZM732.554 2988.13C723.998 3007.57 735.367 3022.35 754.428 3030.52C820.435 3061.12 894.126 3085.72 969.777 3090.41C981.358 3087.61 992.884 3083.89 1004.45 3080.16L1004.45 3080.16C1015.94 3076.46 1027.46 3072.74 1039.11 3069.9L1040.12 3069.71C1048.36 3068.2 1052.22 3066.69 1051.52 3058.13L1051.82 3054.68C1052.35 3048.53 1052.79 3042.4 1052.36 3036.25C1045.17 3053.46 1023.63 3062.92 1004.75 3066.4C981.046 3077.64 955.096 3070.93 930.718 3064.63C924.301 3062.97 917.994 3061.34 911.865 3060.07C903.318 3057.47 892.992 3054.61 881.636 3051.46L881.61 3051.45L881.59 3051.44L881.583 3051.44C829.463 3036.99 755.678 3016.52 732.554 2988.13ZM316.883 2988.84L317.872 2988.54C321.788 2997.46 313.589 3006.31 306.794 3011.16L306.328 3011.49C286.038 3022.57 264.423 3031.9 242.808 3041.23L242.805 3041.23C227.619 3047.78 212.434 3054.34 197.708 3061.5C148.996 3087.65 101.827 3097.46 43.1226 3078.31C13.5061 3072.89 12.645 3065.86 10.6222 3049.35C10.1181 3045.24 9.54193 3040.54 8.43057 3035.12C47.1806 3086.86 119.183 3061.97 163.899 3040.56C205.342 3023.39 247.099 3006.89 289.999 2992.35C298.784 2994.54 306.824 2992.01 314.69 2989.53L314.75 2989.51L314.967 2989.44C315.607 2989.24 316.245 2989.04 316.883 2988.84ZM228.77 2871.71C217.569 2851.05 187.427 2839.7 165.01 2847.32C164.311 2853.42 164.381 2859.74 164.45 2866.08C164.607 2880.44 164.764 2894.86 155.984 2906.86C167.189 2908.83 178.358 2911.09 189.511 2913.44L199.717 2915.59C204.725 2916.69 211.099 2918.57 210.263 2923.88C209.337 2929.75 201.63 2927.96 196.501 2926.48L194.514 2925.9C180.11 2921.66 165.73 2917.33 151.509 2912.49C144.013 2920.74 133.95 2927.21 124.191 2933.46L128.238 2933.92C129.648 2934.08 131.06 2934.23 132.472 2934.39L132.474 2934.39C145.266 2935.81 158.132 2937.24 170.75 2939.83C176.872 2941.64 175.551 2949.99 169.287 2949.32C165.352 2948.3 161.421 2947.24 157.486 2946.18L157.482 2946.18C144.69 2942.74 131.871 2939.29 118.86 2936.89C115.812 2938.91 112.771 2940.93 109.729 2942.94C104.469 2946.43 99.2101 2949.92 93.9276 2953.39C104.506 2954.92 115.114 2955.55 125.712 2956.19H125.713L125.719 2956.19C131.546 2956.53 137.369 2956.88 143.183 2957.38C153.794 2958.36 153.791 2972.86 143.182 2972.02C124.037 2970.27 104.904 2964.6 86.6756 2958.17L77.0689 2964.48C65.8563 2971.85 54.6189 2979.2 43.2696 2986.39C41.6745 2987.41 39.9709 2988.41 38.2356 2989.43L38.2345 2989.43C32.5405 2992.79 26.5058 2996.35 22.8486 3001.18C7.77857 3025.52 45.4346 3048.78 70.8806 3048.39C98.9401 3048.69 123.595 3038.2 147.954 3027.83C157.146 3023.91 166.295 3020.02 175.57 3016.73C181.391 3015.29 194.604 3009.69 210.311 3003.03L210.312 3003.03C245.13 2988.27 292.201 2968.32 298.172 2976.97C300.034 2976.07 302.145 2975.38 304.274 2974.67C308.372 2973.31 312.536 2971.93 315.117 2969.1C315.831 2951.16 312.502 2932.46 309.26 2914.24C308.9 2912.21 308.54 2910.2 308.188 2908.18C307.921 2906.88 307.517 2905.48 307.105 2904.05L307.104 2904.05C306.406 2901.63 305.682 2899.13 305.562 2896.86C299.116 2899.24 294.544 2904.31 289.986 2909.36C283.329 2916.74 276.701 2924.08 264.31 2922.97C261.043 2928.19 250.981 2925.75 246.441 2921.61C242.137 2917.68 241.112 2912.36 240.14 2907.31C239.996 2906.56 239.853 2905.82 239.701 2905.09L239.154 2902.49C236.938 2892.07 234.28 2881.4 228.77 2871.71Z" fill="black"/>
<path fill-rule="evenodd" clip-rule="evenodd" d="M1349.26 792.76C1332.24 794.386 1315.22 796.01 1298.2 797.635C1216.69 803.694 1135.21 816.348 1054.32 823.943C1052.3 820.754 1048.36 821.279 1045.97 823.495C1037.89 822.807 1028.85 816.805 1021.54 823.049C1021.3 823.016 1021.06 822.978 1020.82 822.956C1007.8 798.647 998.805 772.719 990.071 746.756C984.497 730.794 976.997 715.342 963.138 704.625C939.485 688.651 885.29 656.26 857.516 657.621C857.056 652.783 854.738 647.797 850.932 644.575C859.32 630.661 825.778 621.582 823.412 623.195C824.928 576.709 802.452 536.338 752.892 527.08C708.491 518.079 645.34 516.567 621.461 561.71C618.836 561.422 592.004 561.287 589.408 561.57C585.371 556.596 541.044 603.725 559.212 620.133C396.784 690.037 304.428 681.696 259.47 878.215C253.393 896.676 252.95 916.878 246.532 934.927C223.699 986.798 205.179 1042.03 200.57 1098.47C189.438 1101.25 188.158 1120.34 201.052 1123.11C205.977 1124.16 210.096 1125.6 213.687 1128.34C210.88 1174.59 222.378 1280.25 229.623 1279.92C244.395 1325.66 310.287 1338.57 356.936 1322.5C348.895 1337.22 356.936 1346.47 356.936 1354.34C524.793 1360.51 708.326 1356.96 876.135 1365.43C897.601 1365.13 920.179 1370.56 941.351 1367.44C954.263 1364.42 954.285 1344.67 941.188 1342.23L998.415 1330.14C997.136 1329.67 1022.01 1313.58 1040.8 1283.5C1058.3 1249.86 1046.39 1209.26 1054.32 1172.66C1116.23 1167.74 1179.17 1165.63 1240.4 1155.43C1248.75 1179.73 1284.9 1150.67 1296.39 1138.97C1296.37 1138.96 1296.36 1138.94 1296.34 1138.92C1301.9 1137.44 1306.36 1132.37 1306.51 1126.37C1310.41 1120.95 1311.23 1113.31 1307.49 1108.07C1324.63 1011.86 1350.76 913.625 1360.2 816.509C1363.54 815.79 1366.68 814.366 1369.35 812.172L1369.13 811.963C1373.65 807.064 1374.52 798.61 1367 794.448C1360.92 791.087 1355.85 792.13 1349.26 792.76Z" fill="white"/>
<path fill-rule="evenodd" clip-rule="evenodd" d="M614.695 551.226C619.753 538.861 636.849 543.667 634.943 556.657C633.802 564.438 629.422 572.657 625.487 579.476C622.283 585.028 618.629 590.445 613.674 594.606C622.494 602.612 631.649 610.326 641.037 617.65C651.281 625.641 662.052 633.007 673.186 639.777C682.949 645.714 693.153 650.974 702.356 657.748C710.913 664.046 718.708 671.621 722.675 681.509C726.901 692.039 725.064 702.913 721.952 713.436L721.595 714.625C718.416 725.05 712.913 737.617 720.544 747.439C724.428 752.439 730.076 755.981 734.952 759.978C739.286 763.531 743.354 767.395 747.084 771.545C755.219 780.592 761.836 790.773 766.011 802.116L766.384 803.147C769.963 813.188 772.579 825.49 767.743 835.348C766.356 838.174 761.881 837.256 761.104 834.504C759.347 828.27 759.439 821.741 757.966 815.419C756.433 808.844 753.882 802.603 750.551 796.698C744.105 785.275 735.375 775.518 725.062 767.268L721.974 764.826C713.929 758.402 706.536 751.587 704.903 740.956C703.156 729.581 707.84 718.745 710.852 707.979C712.951 700.477 713.636 693.285 711.368 686.505C708.597 690.905 704.816 695.082 701.826 698.808C695.87 706.231 689.857 713.608 683.861 721C677.713 728.579 671.716 736.278 666.006 744.176C663.451 747.709 660.924 751.263 658.406 754.821C656.512 757.495 653.871 760.167 651.806 762.894C652.308 764.353 652.27 766.035 651.36 767.229C640.413 781.62 624.838 751.593 620.775 744.007C612.503 728.557 606.347 712.144 598.048 696.698C589.448 680.686 579.655 665.1 568.741 650.482C562.138 641.64 554.739 633.335 548.699 624.212C534.471 636.764 515.748 645.178 498.551 652.808C479.656 661.191 460.026 668.039 440.653 675.31L434.931 677.472C401.551 690.146 367.356 704.07 339.611 726.582C307.008 753.036 287.72 789.908 273.361 828.089C256.831 872.045 243.156 917.186 230.408 962.299C223.885 985.381 217.695 1008.57 211.876 1031.83C206.749 1052.32 202.498 1073.02 196.562 1093.3C208.601 1092.89 222.331 1097.42 232.609 1098.73C279.45 1104.69 325.662 1114.2 369.886 1130.67C375.348 1132.7 376.929 1138.01 375.739 1142.31C378.89 1141.44 382.038 1140.57 385.188 1139.71C381.736 1134.56 383.384 1125.36 383.655 1119.66L383.672 1119.27C383.951 1111.67 384.798 1104.06 385.348 1096.48C386.394 1082.02 387.756 1067.67 389.567 1053.29L390.029 1049.69C392.082 1034.05 393.599 1018.32 395.839 1002.71L396.104 1000.92C395.03 996.925 393.779 992.979 392.467 989.05C388.97 978.585 384.034 968.734 379.708 958.597C379.198 957.404 380.946 956.719 381.762 957.434C389.088 963.846 394.907 971.979 399.582 980.486C399.663 980.085 399.734 979.683 399.819 979.281L400.352 976.727C401.668 970.497 403.268 963.943 407.196 958.891C407.614 958.354 408.441 958.241 408.837 958.891C412.596 965.08 413.017 972.917 413.595 979.96C414.249 987.926 414.332 995.994 414.216 1003.98C413.991 1019.59 412.86 1035.25 411.959 1050.84C411.075 1066.15 409.339 1081.28 407.101 1096.44L406.676 1099.29C405.582 1106.5 404.687 1113.81 403.244 1120.98L402.837 1122.93C402.066 1126.49 401.591 1131.5 400.056 1135.67C439.554 1124.95 479.113 1114.47 518.747 1104.18C547.393 1096.75 576.068 1089.42 604.732 1082.05C606.245 1079.4 608.128 1076.92 610.478 1074.71C618.222 1067.41 628.485 1064.15 637.898 1069.77C638.663 1070.23 638.727 1071.39 637.898 1071.84C636.094 1072.8 634.287 1073.78 632.512 1074.8L649.724 1070.27C662.588 1066.88 675.607 1062.64 688.774 1060.27C713.026 1048.63 739.11 1040.2 764.658 1031.87L767.669 1030.88C780.75 1026.54 794.28 1021.69 807.795 1019.28C817.69 1017.52 829.304 1019.64 833.283 1029.51C838.32 1032.74 843.059 1036.53 847.632 1040.26C850.939 1042.96 854.108 1045.83 857.331 1048.62L857.925 1049.13C860.56 1051.35 862.647 1052.84 863.294 1056.38C863.628 1058.21 862.434 1060.68 860.115 1060.44C853.022 1059.7 847.254 1051.7 842.444 1046.93C838.727 1043.23 834.981 1039.42 831.589 1035.36C829.611 1036.41 826.901 1036.22 825.642 1033.9C819.115 1021.88 801.235 1030.21 791.342 1033.06L777.17 1037.14C770.085 1039.18 763.002 1041.24 755.931 1043.33C736.498 1049.07 717.16 1055.49 697.55 1060.77C699.305 1062.64 699.063 1065.98 695.73 1067.25C680.38 1073.11 663.541 1076.14 647.594 1080.16C637.526 1082.7 627.463 1085.26 617.405 1087.83C615.68 1090.54 614.439 1093.62 613.917 1097.2C611.998 1110.36 615.7 1125.55 619.306 1138.28L619.849 1140.18C622.814 1150.41 627.175 1162.96 636.251 1169.42C638.467 1171 641.289 1172.1 644.133 1172.34C661.901 1163.45 679.668 1154.55 697.445 1145.67C700.739 1144.02 703.782 1146.25 704.521 1148.9C710.789 1147.9 717.043 1146.32 722.739 1144.44C732.31 1141.28 739.784 1135.25 748.757 1131.08C766.118 1123.01 783.848 1132.92 799.393 1140.45L802.976 1142.17C809.946 1145.46 824.449 1151.78 827.794 1142.78C831.029 1134.07 820.801 1124.77 814.195 1120.85C806.321 1116.18 797.153 1113.68 788.254 1111.59C783.173 1110.41 778.029 1109.43 772.855 1108.73C766.986 1107.92 760.924 1108.04 755.273 1106.19C752.465 1105.27 752.033 1100.93 755.273 1100.22C763.972 1098.29 774.354 1100.39 783.432 1102.54L788.176 1103.68C797.322 1105.86 806.556 1108.6 814.886 1112.96C820.944 1116.12 827.337 1120.94 831.514 1126.83C835.141 1123.55 839.655 1123.66 844.357 1124.88L846.909 1125.57C851.124 1126.7 854.54 1127.48 858.641 1126.7C859.189 1123.79 859.745 1120.89 860.339 1117.99C866.183 1089.44 872.592 1061.01 879.664 1032.73C891.862 983.946 905.977 935.699 921.889 887.946L923.487 883.172C927.157 872.25 930.11 860.35 936.027 850.316C941.623 840.828 950.589 835.362 961.241 832.468C973.33 829.184 986.032 827.465 998.364 825.247C1001.11 824.753 1003.87 824.283 1006.63 823.797C1004.3 819.71 1002.56 815.071 1001 811.51L1000.72 810.893C997.363 803.438 994.344 795.849 991.428 788.22L989.248 782.484C983.984 768.672 978.55 755.087 971.148 742.169C963.358 728.573 953.023 717.458 940.139 708.259C913.871 689.501 882.21 679.933 856.733 659.887C855.688 659.066 857.027 657.661 858.087 658.181C875.29 666.59 893.861 672.308 911.755 679.155L915.284 680.51C929.427 685.964 943.79 691.902 956.031 700.733C969.679 710.581 980.428 722.81 988.507 737.353C996.469 751.688 1001.56 767.733 1007.18 783.045L1008.68 787.125C1010.95 793.243 1013.29 799.342 1015.97 805.296C1018.1 810.022 1022.07 815.418 1023.88 820.817C1028.82 819.984 1033.76 819.147 1038.7 818.344C1145.82 800.945 1254.13 790.722 1362.68 787.731C1366.93 787.614 1369.13 791.557 1368.5 795.161C1358.08 855.091 1348.83 915.226 1338.67 975.202C1334.23 1001.38 1329.71 1027.53 1325.08 1053.68C1322.74 1066.92 1320.03 1080.12 1317.81 1093.38C1316.01 1104.09 1314.71 1114.89 1311.64 1125.36C1308.88 1134.74 1304.64 1143.78 1297.68 1150.94C1290.18 1158.66 1279.71 1162.39 1269.18 1164.16C1242.43 1168.64 1214.99 1170.47 1188.03 1173.45L1044.46 1189.34C1046.56 1207.89 1046.72 1226.16 1045.76 1244.92L1045.21 1255.17C1044.76 1263.41 1044.22 1271.66 1043.01 1279.82C1041.48 1290.05 1036.67 1298.72 1029.58 1306.36C1023.08 1313.38 1015.17 1319.36 1007.48 1325.1C999.502 1331.06 991.255 1336.81 981.871 1340.49L980.653 1340.96C972.421 1344.09 956.977 1348.93 945.725 1347.16C947.195 1354.33 959.023 1438.76 956.5 1445.85C955.33 1449.15 948.437 1469.16 945.725 1466.35C940.35 1460.8 930.505 1376.6 929.232 1369.35C927.908 1361.81 929.674 1336.02 928.66 1328.43C926.698 1313.76 925.171 1298.96 924.705 1284.16C924.226 1268.97 924.41 1253.76 925.252 1238.58C925.685 1230.79 926.221 1223 927.238 1215.25C927.672 1211.95 928.115 1208.64 928.622 1205.35C928.806 1204.15 929.011 1202.95 929.232 1201.76L916.346 1203.17C896.588 1205.32 876.82 1207.26 856.922 1207.56C854.566 1207.59 852.753 1206.55 851.568 1205.03C850.306 1207.03 848.108 1208.46 844.96 1208.45C817.172 1208.35 791.296 1199.51 766.022 1189.09C753.282 1183.84 740.741 1178.15 727.983 1172.94C716.074 1168.08 703.343 1164.61 691.722 1159.14L661.184 1174.72C660.96 1175.49 660.673 1176.21 660.368 1176.82C658.38 1180.77 654.459 1182.91 650.456 1184.52C646.613 1186.07 642.633 1186.56 638.756 1186.16C615.596 1197.97 592.431 1209.77 569.251 1221.54L546.065 1233.29C499.871 1256.69 453.859 1280.48 407.373 1303.33L403.951 1305C387.895 1312.84 377.818 1316.93 360 1322.85C359.683 1327.24 359.622 1324.77 360 1329.42L344.109 1388.85C348.635 1384.95 344.64 1394.34 344.109 1388.85C341.755 1390.89 332.601 1494.42 331 1491.35C328.095 1485.8 341.875 1341.95 342.796 1335.91C343.122 1333.77 343.52 1331.56 344.109 1329.42C323.682 1335.33 302.636 1338.2 281.849 1334.88C261.61 1331.65 245.934 1319.24 233.298 1304.07C219.961 1288.06 210.484 1269.4 205.399 1249.4C199.612 1226.64 199.235 1203.13 199.37 1179.82C199.515 1154.99 200.459 1130.04 203.562 1105.38C200.162 1104.61 196.391 1103.93 192.954 1104.17C191.252 1106.82 187.951 1107.93 184.967 1107.59C178.479 1114.55 194.935 1121.66 200.194 1123.44C202.02 1124.06 201.825 1126.95 199.719 1126.86L198.392 1126.8C190.266 1126.38 181.871 1125.03 177.093 1117.68C173.265 1111.79 174.415 1104.82 178.979 1100.02C181.993 1072.29 189.2 1045.28 195.907 1018.24C202.489 991.686 209.808 965.307 217.566 939.061L221.045 927.314C233.26 886.161 246.028 844.676 262.878 805.158C271.292 785.426 280.984 766.057 294.123 748.851C306.37 732.813 320.829 719.089 337.45 707.367C368.434 685.513 404.791 672.309 440.513 659.728L442.112 659.165C460.624 652.651 479.091 646.058 497.391 639C513.577 632.757 529.083 624.843 545.191 618.507C544.668 617.583 544.163 616.648 543.677 615.703L543.379 615.947C543.328 615.986 543.276 616.024 543.221 616.06C541.601 617.152 539.216 616.616 537.881 615.39C534.112 611.929 535.388 608.088 537.904 604.5L538.232 604.043C541.309 599.849 544.054 595.414 546.895 591.068L548.673 588.35C553.441 581.089 558.451 573.779 564.808 567.778C567.752 564.997 570.975 562.917 574.39 561.367C574.098 560.766 576.658 559.538 577.384 560.156C588.204 556.304 600.651 557.111 612.446 558.173M1047.38 1190.11L1032.33 1191.77C1015.79 1193.6 999.231 1195.38 982.673 1197.13L946.71 1200.93C946.618 1202.93 946.369 1204.88 946.324 1206.38C946.089 1214.15 945.914 1221.92 945.748 1229.69C945.415 1245.26 945.78 1260.85 946.834 1276.39C947.855 1291.45 949.2 1306.51 951.29 1321.46L951.718 1324.45L951.966 1326.03C953.672 1326.19 955.348 1326.97 956.741 1328.59C959.783 1332.13 970.797 1328.69 975.099 1327.2C982.173 1324.76 988.835 1320.62 994.982 1316.47C1000.98 1312.42 1006.39 1307.69 1011.58 1302.72L1015.83 1298.63C1020.06 1294.54 1024.29 1290.19 1026.88 1285.05C1030.4 1278.07 1030.85 1269.52 1031.88 1261.92C1033.15 1252.58 1034.66 1243.24 1036.25 1233.95M610.707 1092.07L609.146 1092.47C552.469 1107.12 495.876 1122.21 439.024 1136.21C410.89 1143.14 382.622 1149.57 354.453 1156.37L349.893 1157.48C327.67 1162.94 305.181 1169.52 288.164 1185.2C287.536 1185.78 286.624 1184.89 287.215 1184.28C305.556 1165.28 331.64 1157.24 356.685 1150.27C361.314 1148.98 365.95 1147.73 370.58 1146.45C336.52 1134.63 301.921 1124.35 266.525 1117.02C257.41 1115.14 248.189 1113.75 239.082 1111.86C232.73 1110.53 226.527 1108.62 220.242 1107.04L215.299 1105.83L215.233 1121.03C215.151 1142.56 215.19 1164.07 216.319 1185.59L216.533 1189.58C217.85 1213.53 219.906 1237.99 228.644 1260.57C235.744 1278.93 247.062 1296.22 261.862 1309.59C269.351 1316.35 277.402 1321.62 287.355 1324.22C296.596 1326.63 306.278 1326.91 315.778 1326.27C361.344 1323.18 401.905 1299.1 441.487 1279.16C506.229 1246.54 570.978 1213.95 635.786 1181.46C634.034 1180.3 632.384 1178.95 630.884 1177.45C622.193 1168.71 617.609 1156.76 614.598 1145.18C611.393 1132.86 609.477 1119.65 609.254 1106.93M693.168 1194.05C693.74 1193.75 694.403 1194.13 694.429 1194.76C694.63 1199.57 691.894 1204.32 689.85 1208.66L689.634 1209.12C687.151 1214.5 684.433 1219.8 681.621 1225.02C676.001 1235.44 670.16 1245.76 664.065 1255.92C651.807 1276.38 638.186 1295.98 622.085 1313.79C618.448 1317.81 612.467 1312.65 614.801 1308.32C626.053 1287.44 639.17 1267.72 652.672 1248.17C659.432 1238.38 666.186 1228.59 673.013 1218.84C675.86 1214.78 678.745 1210.73 681.706 1206.74L683.493 1204.35M1365.36 799.693C1308.49 801.364 1251.68 804.973 1195.07 810.628C1142.43 815.887 1089.98 822.887 1037.83 831.615C1026.93 833.437 1016.05 835.335 1005.19 837.307L998.671 838.499C987.803 840.503 974.526 841.33 964.85 846.979C954.648 852.933 951.891 865.378 948.497 875.641C944.506 887.71 940.617 899.814 936.832 911.947C921.804 960.121 908.077 1008.71 895.831 1057.63C889.752 1081.9 884.359 1106.32 878.676 1130.69C873.627 1152.34 868.055 1173.74 862.235 1195.17C862.953 1194.63 863.832 1194.22 864.894 1194C893.796 1188.02 923.299 1185.42 952.632 1182.11L955.471 1181.79C985.816 1178.32 1016.16 1174.87 1046.52 1171.55L1247.55 1149.56C1259.41 1148.26 1272.11 1148.08 1283.65 1144.99C1303.27 1139.72 1307.86 1118.39 1311.16 1101.39L1311.25 1100.88C1321.18 1049.54 1329.08 997.754 1338.33 946.285M866.914 1135.49C859.109 1134.99 848.427 1128.04 842.505 1128.54C845.614 1133.61 847.017 1139.4 845.225 1145.58C840.239 1162.78 817.692 1153.88 806.831 1148.63C797.926 1144.32 789.327 1139.04 779.469 1137.02C768.3 1134.74 760.734 1139.06 751.299 1144.04C743.549 1148.13 735.109 1151.07 726.429 1152.59C721.814 1153.4 717.43 1153.48 713.054 1153.17C712.791 1153.38 712.494 1153.57 712.156 1153.74L709.841 1154.92C720.307 1155.39 730.968 1158.53 740.708 1161.41C750.802 1164.39 760.71 1167.98 770.566 1171.66L780.262 1175.28C804.179 1184.19 828.936 1192.65 854.819 1192.58C856.68 1192.57 858.204 1193.08 859.404 1193.89M823.246 1081.6C830.957 1080.68 838.074 1081.67 844.235 1086.55C851.666 1092.44 856.657 1102.21 867.339 1102.85C870.454 1103.03 871.177 1107.29 868.082 1108.18C860.131 1110.48 853.693 1106.29 848.276 1100.86L844.633 1097.15C839.28 1091.76 834.342 1087.59 825.258 1087.91C815.53 1088.26 805.784 1090.45 796.119 1091.56C785.17 1092.82 774.223 1093.89 763.24 1094.82C762.73 1094.86 762.643 1094.08 763.121 1093.96L775.423 1090.99M815.803 1050.93L817.075 1050.81C828.272 1049.75 838.512 1049.71 848.511 1055.57L850.429 1056.7C859.445 1062.03 869.258 1068.31 874.896 1076.94C875.818 1078.36 874.294 1080.02 872.75 1079.66C861.914 1077.13 853.993 1069.39 844.881 1063.61C834.654 1057.11 824.09 1058.18 812.429 1059.19C801.139 1060.17 789.855 1061.51 778.676 1063.34C768.171 1065.06 757.634 1067.77 747.023 1068.64L747.025 1068.62C745.813 1068.61 745.122 1066.84 746.358 1066.24C757.126 1061.01 769.597 1058.54 781.31 1056.15M432.404 754.729C432.39 753.868 433.635 753.545 434.07 754.291C441.356 766.76 445.164 782.045 449.045 795.783C453.109 810.174 456.391 824.711 459.338 839.355C465.309 869.007 468.49 898.489 468.706 928.711C468.735 933.026 461.51 934.174 460.803 929.753C456.11 900.355 451.615 870.928 446.886 841.538C444.507 826.757 441.738 812.032 439.088 797.294M504.526 776.448C503.989 774.729 506.561 774.153 507.219 775.726C521.84 810.641 526.791 850.209 517.404 887.045C515.968 892.679 507.485 890.238 508.569 884.674M693.11 745.424C693.036 744.137 694.754 743.934 695.401 744.82C702.328 754.316 705.202 767.034 717.356 771.941C723.424 774.391 730.253 773.965 735.614 778.103C739.198 780.871 741.947 785.241 739.257 789.433C738.389 790.787 735.96 791.466 734.782 789.994C733.063 787.85 732.154 785.283 729.819 783.675C726.526 781.408 722.085 781.268 718.309 780.202C713.424 778.825 709.119 776.414 705.593 772.832M808.844 587.039C809.558 586.685 810.244 586.911 810.7 587.512C811.352 588.368 811.272 589.201 810.474 589.787C811.54 591.908 812.8 597.222 812.98 597.995C813.71 601.131 814.486 604.248 815.297 607.362C816.935 613.644 818.37 619.974 820.009 626.258C821.747 632.919 823.817 639.509 826.121 646.004C826.27 646.425 826.433 646.854 826.605 647.29L826.867 647.948L826.932 647.848C827.4 647.128 828.375 647.631 828.26 648.392C828.152 649.086 828.008 649.776 827.886 650.469L828.128 651.09C829.635 655.037 830.667 659.193 827.902 662.675C826.867 663.977 825.729 664.749 824.311 664.978C822.036 672.272 819.183 679.43 816.128 686.305L815.233 688.312C810.739 698.343 805.946 708.242 798.791 716.782C790.98 726.105 780.234 732.471 773.43 742.688C770.264 747.44 768.061 752.437 766.273 757.803L765.601 759.84C764.332 763.636 762.867 767.315 759.207 769.542C758.039 770.252 756.29 770.026 755.348 769.057C747.842 761.333 755.7 746.91 760.225 739.431C766.516 729.032 775.622 722.379 784.739 714.533C794.566 706.076 800.834 694.763 806.898 683.618C810.612 676.79 814.197 669.815 817.972 662.957C814.028 659.566 812.766 652.83 811.43 648.147L811.308 647.728C809.099 640.23 807.345 632.537 806.236 624.81C805.169 617.381 804.724 610.059 805.007 602.588L805.088 600.685M823.508 622.398C822.636 621.236 824.079 619.92 825.274 620.162C832.543 621.624 839.649 625.905 846.173 629.366L846.87 629.734C852.077 632.466 857.317 635.812 860.051 641.12C863.025 646.888 862.78 653.533 862.375 659.802L862.336 660.388C861.839 667.906 861.759 675.717 860.124 683.099C859.287 686.877 855.77 687.942 852.763 687.049C849.184 698.041 839.133 706.14 831.79 714.814C822.429 725.872 824.191 740.802 825.169 754.12C825.565 759.512 818.671 761.045 815.12 758.168L806.937 751.556C805.574 750.452 804.214 749.346 802.856 748.236C801.694 747.284 800.542 746.326 799.399 745.355L797.693 743.889C796.936 743.23 793.597 739.602 792.621 739.451C790.257 739.085 784.639 745.148 782.717 747.049L782.473 747.286C778.854 750.739 775.585 754.453 772.54 758.392C771.979 759.116 770.884 758.515 771.284 757.679C774.013 751.992 777.186 746.555 780.954 741.466L781.715 740.453C784.222 737.166 787.586 731.364 792.011 730.393C797.413 729.209 802.808 734.48 806.739 737.405L806.988 737.589C808.858 738.953 810.706 740.343 812.552 741.741C812.358 731.825 813.646 721.806 818.908 713.261C822.619 707.234 828.178 702.771 832.935 697.592C838.23 691.825 840.996 684.738 845.79 678.732C846.407 677.96 847.258 677.544 848.18 677.411C848.364 672.583 849.095 667.707 849.659 662.931L849.823 661.501C850.394 656.312 851.743 649.974 849.132 645.114C846.665 640.523 841.005 637.283 836.814 634.169L833.391 631.586M587.607 567.527C585.419 568.758 583.373 570.29 581.518 572.205C575.676 578.234 571.499 585.736 567.435 592.954C565.246 596.841 563.137 600.771 560.93 604.649C559.971 606.336 558.984 608.004 557.986 609.671C557.525 610.438 556.154 611.965 555.475 612.905C556.23 613.934 557.01 614.947 557.807 615.95C558.11 616.332 579.065 638.54 586.37 647.232C597.555 660.546 607.553 674.608 616.1 689.66C624.47 704.4 630.842 720.006 638.596 735.031C642.476 742.554 646.81 750.023 652.335 756.533C652.548 756.787 652.774 757.027 652.992 757.277C655.1 751.736 660.503 745.802 663.156 742.395L663.404 742.074C669.422 734.181 675.778 726.527 682.271 719.002C688.203 712.131 694.284 705.408 700.513 698.796L702.856 696.322C707.196 691.761 712.709 684.937 719.062 681.678C718.381 680.498 717.593 679.33 716.687 678.178C710.735 670.61 702.32 665.118 694.018 660.163L688.633 656.976C668.337 644.943 648.357 632.352 630.737 616.718C621.415 608.445 612.222 599.779 604.386 590.13L601.615 586.718M621.472 561.57C611.968 562.346 601.704 562.161 592.921 565.174C600.729 572.355 608.151 580.11 615.776 587.412C616.454 582.473 617.842 577.595 619.017 572.779" fill="black"/>
<path fill-rule="evenodd" clip-rule="evenodd" d="M911.112 371.277C908.722 350.283 911.814 306.4 912.022 303.734C913.331 286.88 905.434 220.325 890.506 226.457C865.463 206.632 832.108 202.255 800.919 200.164C736.135 195.819 667.216 205.792 617.191 249.391C592.452 272.032 568.367 304.963 570.303 339.251C547.826 371.752 516.138 416.335 544.144 454.331C553.664 466.471 568.793 470.992 580.752 480.185C604.806 499.587 619.898 527.431 644.18 546.717C708.512 604.526 817.749 616.602 880.955 550.849C929.832 503.229 921.928 431.986 913.331 371.277C907.552 330.462 915.773 412.235 911.112 371.277Z" fill="white"/>
<path fill-rule="evenodd" clip-rule="evenodd" d="M714.377 111.133C731.703 107.637 749.494 105.461 767.187 106.116L768.552 106.169C781.864 106.701 798.724 107.878 810.337 115.619C811.006 114.949 812.08 114.605 813.054 115.07C826.855 121.657 842.035 126.42 856.566 131.153C871.031 135.862 886.037 138.971 901.198 140.224C906.902 140.696 911.783 146.855 908.172 152.379C907.312 153.696 906.476 155.025 905.642 156.358C907.036 156.213 908.43 156.063 909.824 155.922C914.412 155.461 918.995 160.356 918.723 164.823C918.553 167.632 918.25 170.408 917.801 173.151C919.548 173.114 921.285 173.376 922.964 174.085C931.461 177.674 930.87 187.795 930.234 195.496C929.353 206.182 925.356 217.502 917.935 225.5C923.475 231.255 927.398 238.128 929.738 246.29C931.435 252.25 932.379 258.599 931.913 264.804L931.764 266.661C931.188 273.394 930.042 280.849 925.198 285.693C922.712 288.19 919.648 289.1 916.728 288.812C918.494 304.329 919.626 319.934 920.692 335.484L921.191 342.917C923.568 378.856 925.354 415.03 924.887 451.029C924.453 484.671 917.806 517.325 897.172 544.641C878.38 569.515 851.398 587.851 820.875 594.821C804.426 598.584 787.632 598.85 770.983 596.453C762.913 595.287 754.789 593.5 747.13 590.681C738.651 587.551 732.557 582.945 726.852 576.041C724.154 572.767 725.453 565.796 730.826 566.451C738.952 567.437 746.37 568.624 754.161 571.028L755.277 571.379C763.036 573.866 771.072 575.719 779.185 576.507C795.802 578.117 812.672 576.496 828.589 571.457C854.506 563.243 876.827 544.941 891.134 521.943C908.116 494.683 910.036 463.738 909.791 432.393C909.528 397.998 908.41 363.583 906.583 329.223L906.272 323.497C905.307 305.816 904.374 288.123 903.554 270.431C903.299 264.881 902.91 259.287 902.21 253.749C895.807 249.997 890.069 244.825 886.328 238.443C878.814 241.551 870.911 243.793 863.64 245.58C846.798 249.722 829.312 250.728 812.169 248.134C807.545 250.044 802.829 251.723 798.04 253.168C796.746 253.742 795.452 254.306 794.159 254.859C782.614 259.798 770.905 263.982 758.719 267.046L755.725 267.792C749.312 269.373 742.346 270.93 735.521 271.419C734.4 271.852 733.19 272.218 731.868 272.54C725.654 274.049 719.204 274.527 712.834 273.994C706.628 273.472 702.144 267.201 705.563 261.33C708.06 257.045 710.581 252.772 713.122 248.51C704.276 252.195 695.141 255.258 685.929 257.856C676.628 260.475 667.193 262.684 657.747 264.715C652.696 265.792 647.625 266.746 642.586 267.823C638.979 268.589 633.44 268.988 630.498 271.363C627.247 273.972 626.325 280.054 625.092 283.806C623.472 288.678 621.951 293.573 620.564 298.524C617.801 308.402 615.537 318.425 613.783 328.547C612.029 338.681 610.852 348.915 610.197 359.182C609.543 369.437 609.831 379.76 608.777 389.971C608.21 395.388 602.395 398.174 598.1 394.389C597.596 393.945 597.088 393.496 596.585 393.042L595.835 392.358C592.16 389.028 588.598 385.498 585.657 381.525C585.125 380.792 584.614 380.026 584.137 379.249C584.059 379.249 583.992 379.227 583.915 379.172L583.099 378.558C574.123 371.876 559.125 363.166 550.372 374.266C547.583 377.802 546.155 382.305 544.97 386.649L542.89 394.423C541.545 399.498 540.279 404.602 539.538 409.795C537.862 421.427 538.706 434.835 546.71 444.158C549.906 447.888 554.313 450.552 559.229 451.251C561.971 451.628 564.68 451.162 567.399 450.818C570.163 450.474 572.825 451.029 575.59 450.763C579.986 450.33 581.906 455.591 580.263 458.898C579.375 460.674 578.331 462.206 577.144 463.505C578.098 464.326 579.009 465.214 579.886 466.146C582.483 466.979 584.813 468.766 586.556 471.13C587.966 473.039 588.697 475.115 588.821 477.301C588.975 477.845 589.108 478.4 589.231 478.966L591.613 482.831C592.136 483.678 592.658 484.516 593.182 485.337C599.242 494.882 605.969 502.963 614.327 510.577C622.374 517.903 631.108 524.462 638.668 532.321L639.558 533.254C646.606 540.68 654.035 549.67 651.277 560.469C650.566 563.243 646.692 565.241 644.162 563.366C636.026 557.328 631.929 547.76 625.027 540.434C617.922 532.887 610.053 526.105 602.928 518.58C596.189 511.476 590.873 503.429 586.867 494.572C585.268 496.337 582.938 497.591 579.708 498.079C574.158 498.912 568.985 495.659 566.566 490.853C565.011 491.542 563.425 492.163 561.826 492.651C553.413 495.227 548.119 485.87 551.294 478.955C552.991 475.248 555.111 472.029 557.742 469.321C549.517 468.189 541.148 463.937 535.742 458.632C522.18 445.302 520.315 425.267 523.368 407.453C524.988 398.007 527.784 388.451 531.415 379.582C532.046 378.039 532.724 376.486 533.467 374.954C533.056 374.943 532.635 374.765 532.368 374.421C529.915 371.069 526.931 368.328 525.109 364.576C523.433 361.135 521.57 357.65 520.248 354.065C517.529 346.728 516.197 338.448 515.31 330.69C513.478 314.806 514.187 299.023 516.619 283.24C520.758 256.357 530.757 230.631 545.486 208.057C544.684 207.636 543.916 207.127 543.2 206.525L542.846 206.217L542.271 205.697C538.068 201.894 538.431 194.765 542.271 190.912L543.484 189.696C545.02 188.17 546.344 186.961 548.825 185.3C549.191 185.055 549.566 184.824 549.944 184.609C548.645 182.209 548.195 179.403 549.099 176.307C552.252 165.523 567.768 165.905 577.604 170.608C588.484 160.897 600.549 152.467 613.627 145.641C644.773 129.391 679.99 118.059 714.377 111.133ZM553.381 395.166C559.197 393.268 566.922 397.252 572.15 399.65C578.776 402.691 584.415 407.186 589.875 411.937C592.595 414.312 593.082 418.197 592.406 421.516C592.338 421.849 592.273 422.193 592.194 422.537C591.473 426.077 587.521 428.863 584.025 428.764C576.71 428.564 573.226 422.248 569.085 416.898C568.598 417.764 567.987 418.563 567.232 419.163L566.721 419.562C565.003 420.871 563.109 421.916 560.838 421.815C559.229 421.738 557.687 421.327 556.265 420.583C552.714 418.708 551.15 414.112 552.114 410.372C552.714 408.019 554.09 406.176 555.888 404.9L555.218 404.441C553.784 403.443 552.476 402.391 551.456 400.839L551.226 400.471H551.315C550.205 398.562 550.928 395.965 553.381 395.166Z" fill="black"/>
<path fill-rule="evenodd" clip-rule="evenodd" d="M820.814 404.221C828.366 408.811 839.872 419.514 831.748 430.893C822.186 440.927 808.418 429.423 801.634 424.22C795.343 420.188 788.275 430.558 794.112 435.267C843.136 471.562 863.031 405.421 824.634 398.824C820.406 398.097 818.836 402.801 820.814 404.221ZM752.588 316.684L754.465 316.356L755.427 316.193C761.052 315.263 767.718 314.641 771.603 319.055C773.782 321.531 774.532 326.133 771.603 328.503C766.451 332.673 760.755 331.057 754.581 331.41C749.493 331.702 744.603 332.544 739.702 333.945C728.95 337.018 720.189 342.628 711.006 348.788C709.801 349.596 708.571 348.055 709.146 346.928C714.447 336.545 724.72 328.016 735.01 322.817C740.502 320.042 746.512 317.74 752.588 316.684ZM802.325 460.125C818.757 461.318 854.367 453.474 869.153 465.24C924.88 534.827 703.95 552.718 727.81 475.731C743.007 450.838 777.962 460.843 802.325 460.125ZM799.508 502.134C795.444 501.803 790.512 505.022 789.319 507.509C788.126 509.997 788.587 515.254 788.623 516.165C795.728 516.881 802.895 516.99 810.02 516.523C808.169 510.4 808.109 503.061 799.508 502.134ZM832.314 512.406C831.172 504.806 825.736 503.006 821.336 504.147C816.835 505.313 814.193 510.494 814.479 515.107C814.498 515.425 814.314 515.695 814.193 515.951C820.311 515.228 826.372 514.038 832.314 512.406ZM781.92 503.51C779.358 499.612 773.236 497.731 769.315 498.418C762.912 499.766 762.154 507.902 762.154 509.56C768.057 511.81 774.324 513.304 780.316 514.494C781.519 514.732 782.725 514.945 783.933 515.146L784.012 514.158C784.157 512.041 784.266 507.078 781.92 503.51ZM854.349 502.867C847.784 492.71 833.672 499.982 834.838 511.078C836.092 510.683 837.34 510.27 838.582 509.837C843.74 508.039 849.398 505.902 854.349 502.867ZM802.664 467.871C793.832 467.076 786.587 467.344 780.827 468.412L780.652 470.336C780.015 477.007 779.193 483.566 782.696 486.25C785.541 488.43 794.984 488.222 801.316 486.644C802.88 486.25 804.913 472.414 802.664 467.871ZM816.321 467.076C814.905 473.65 814.24 481.633 817.082 484.004C820.083 486.508 829.744 486.169 832.271 484.501C834.482 483.041 834.426 476.327 833.605 468.79C828.712 467.637 820.192 467.076 816.321 467.076ZM776.921 468.478L774.029 468.504L772.392 468.525C768.253 468.599 763.787 468.837 759.566 469.759C751.18 487.882 781.805 491.01 777.075 469.148L776.921 468.478ZM837.501 468.915L837.448 469.941C837.196 475.032 837.363 481.736 840.183 483.546C844.333 486.209 852.126 485.695 856.347 473.376C854.95 469.701 840.134 469.184 837.501 468.915ZM756.224 360.854C757.997 360.854 759.693 361.456 761.237 362.569C762.758 363.666 764.134 365.265 765.28 367.261C767.449 371.036 768.805 376.25 768.805 382.014C768.805 387.778 767.449 392.992 765.28 396.767C764.134 398.763 762.758 400.362 761.237 401.458C759.693 402.572 757.997 403.174 756.224 403.174C754.451 403.174 752.755 402.572 751.21 401.458C749.69 400.362 748.314 398.763 747.168 396.767C744.999 392.992 743.643 387.778 743.643 382.014C743.643 376.25 744.999 371.036 747.168 367.261C748.314 365.265 749.69 363.666 751.21 362.569C752.755 361.456 754.451 360.854 756.224 360.854ZM868.464 360.854C870.237 360.854 871.933 361.456 873.478 362.569C874.998 363.666 876.374 365.265 877.52 367.261C879.689 371.036 881.045 376.25 881.045 382.014C881.045 387.778 879.689 392.992 877.52 396.767C876.374 398.763 874.998 400.362 873.478 401.458C871.933 402.572 870.237 403.174 868.464 403.174C866.691 403.174 864.995 402.572 863.45 401.458C861.93 400.362 860.554 398.763 859.408 396.767C857.239 392.992 855.883 387.778 855.883 382.014C855.883 376.25 857.239 371.036 859.408 367.261C860.554 365.265 861.93 363.666 863.45 362.569C864.995 361.456 866.691 360.854 868.464 360.854ZM853.193 312.033L854.63 312.327L855.583 312.529C871.083 315.863 890.733 322.435 897.988 337.485C898.271 339.656 897.972 340.122 897.73 340.426L897.649 340.527C897.45 340.787 897.29 341.145 896.349 341.441C896.087 341.378 895.824 341.312 895.557 341.243C892.163 340.353 889.477 339.128 886.877 337.856L884.058 336.467C880.788 334.864 877.488 333.318 873.992 332.178C866.53 329.744 858.854 328.029 851.06 327.113C849.37 326.915 847.744 326.345 846.46 325.368C845.242 324.44 844.311 323.156 843.887 321.449C843.337 319.24 843.495 317.568 844.68 315.575C845.572 314.078 846.847 313.041 848.311 312.445C849.804 311.838 851.503 311.695 853.193 312.033Z" fill="black"/>
<path fill-rule="evenodd" clip-rule="evenodd" d="M917.267 405.935C908.088 417.404 872.151 430.134 853.024 416.314C833.898 402.495 826.339 392.864 823.783 375.595C823.51 373.754 820.181 372.529 818.774 373.837C810.893 381.157 805.791 390.48 800.737 399.827C795.036 410.37 789.422 420.977 779.062 428.113C760.714 437.949 727.52 439.349 717.713 435.011C698.927 426.7 684.067 408.926 680.687 384.466C680.687 384.466 677.25 373.617 674.239 371.334C671.385 369.169 655.632 367.241 653.906 366.921C622.807 361.151 583.475 357.473 555.776 377.774C552.027 380.039 539.195 388.552 539.005 386.459C538.871 378.26 548.162 359.702 569.294 350.872C595.426 339.952 634.271 339.314 656.775 341.724C657.906 341.845 661.765 340.897 662.037 340.779C696.131 326.018 735.359 329.938 771.839 336.142C777.067 337.157 823.864 348.744 842.478 341.724C873.254 329.16 906.067 320.057 939.302 323.638C939.58 323.668 943.775 349.135 940.507 350.872C937.906 352.255 933.48 355.797 931.908 357.736C930.502 359.47 929.617 361.624 929.695 364.61C930.327 381.879 925.4 395.774 917.267 405.935ZM790.728 390.526C794.631 384.881 795.862 372.2 794.228 362.948C793.401 358.264 791.795 354.536 789.779 352.68C788.439 351.446 786.91 350.865 785.243 350.951C784.329 350.999 783.338 351.259 782.291 351.824C768.097 344.146 750.903 341.382 734.604 342.177C721.629 342.175 712.372 345.237 706.094 350.004C698.541 355.741 695.138 363.987 694.941 372.93C694.707 383.541 699.066 395.151 706.217 404.336C713.061 413.129 722.424 419.647 732.581 421.151C744.112 423.44 755.862 421.225 766.079 415.808C776.557 410.253 785.408 401.33 790.728 390.526ZM904.507 396.512C911.084 388.74 915.457 378.63 916.123 368.613C916.728 359.496 914.287 350.466 907.538 343.003C901.419 337.751 890.606 337.664 879.231 340.589C864.523 344.371 849.307 352.823 844.235 358.281C843.04 358.908 841.931 359.998 840.965 362.338L840.958 363.173C839.422 370.259 840.334 377.451 842.992 384.085C845.879 391.291 850.831 397.833 856.868 402.824C864.89 409.432 873.264 411.455 881.102 410.388C889.979 409.179 898.235 403.924 904.507 396.512Z" fill="white"/>
<path fill-rule="evenodd" clip-rule="evenodd" d="M841.42 338.917C872.585 326.193 905.898 317.022 939.624 320.656C942.413 319.595 945.875 320.489 947.111 324.433C959.124 361.028 932.335 350.851 932.695 364.531C935.503 441.234 832.408 454.333 820.816 376.035L820.603 376.161C803.925 391.724 800.412 417.049 780.765 430.584C741.132 459.569 684.95 436.604 677.734 385.004L677.576 384.306C675.154 373.775 672.258 371.164 660.312 371.216L658.424 370.841C627.385 364.726 586.052 359.23 557.464 380.261C551.246 383.877 550.954 393.173 545.7 397.212C539.944 398.33 536.398 391.407 536.008 386.616C535.096 338.853 620.566 335.417 658.844 339.516C659.575 338.759 661.136 338.853 661.662 339.796C696.28 324.808 735.281 326.882 772.347 333.185C795.308 337.63 817.986 347.755 841.42 338.917ZM936.521 329.474C917.82 328.539 900.522 329.562 882.166 334.057C872.492 336.391 865.068 339.342 855.808 342.891C798.05 368.48 791.388 322.995 661.92 340.825C663.595 347.999 663.903 355.102 663.993 361.842C690.428 360.777 684.204 386.018 694.108 403.748L694.413 404.283C708.847 430.151 742.907 442.217 770.382 425.059C793.304 411.699 795.54 377.814 818.362 364.366C838.145 363.588 830.243 390.288 841.009 401.262C856.163 421.483 888.374 424.31 907.376 405.29C916.291 396.138 921.029 384.518 921.291 372.034C921.788 364.058 920.42 355.953 926.45 350.343C930.677 346.049 938.187 347.482 939.049 340.991C939.597 337.153 938.001 332.99 936.521 329.474ZM733.28 339.928C751.857 339.013 771.513 342.239 787.464 351.35C799.271 341.954 802.164 379.296 794.327 390.097C783.036 413.199 756.749 428.388 731.438 423.344C691.952 417.622 664.44 339.859 733.28 339.928ZM786.33 353.854L785.32 353.707C768.207 351.096 721.612 338.999 703.641 358.091C686.2 389.76 730.447 442.954 776.492 400.584C789.307 387.537 794.274 371.716 786.33 353.854ZM840.559 357.902C849.422 347.409 894.586 326.155 910.329 339.794C939.062 371.995 893.495 437.128 855.329 405.395C842.617 394.788 834.254 377.888 837.914 361.523L837.92 360.837C837.928 360.588 837.974 360.645 838.24 360.335C838.711 359.098 839.559 358.308 840.559 357.902ZM909.928 377.419C919.618 324.862 879.12 344.842 845.859 358.87C847.645 360.501 847.637 362.728 847.124 364.558C843.616 403.554 891.013 425.652 909.928 377.419ZM658.172 342.07C644.299 346.768 552.538 338.366 544.061 381.38C553.009 366.883 571.541 361.13 588.201 358.008C610.862 353.761 633.399 356.22 655.742 360.689L656.203 356.065C656.699 351.16 657.221 346.572 658.172 342.07Z" fill="black"/>
<path d="M1105 1018.82V955C1105 952.239 1107.24 950 1110 950H1184.22C1185.23 950 1186.09 950.762 1186.2 951.771L1192 1002V1011C1192 1016.61 1187.62 1021.25 1182.02 1021.57L1112.16 1025.59C1108.28 1025.81 1105 1022.72 1105 1018.82Z" fill="black"/>
<path d="M1111 982.939V958.119C1111 956.969 1111.97 956.056 1113.12 956.123L1143.62 957.891C1144.67 957.952 1145.5 958.828 1145.5 959.887V981V983.349C1145.5 983.773 1145.37 984.189 1145.14 984.542C1144.74 985.141 1144.07 985.5 1143.35 985.5H1116.5H1113.56C1112.88 985.5 1112.23 985.23 1111.75 984.75C1111.27 984.27 1111 983.618 1111 982.939Z" fill="white" stroke="white"/>
<path d="M1150.94 981.126L1149.64 960.627C1149.56 959.475 1150.48 958.5 1151.63 958.5H1178.71C1179.73 958.5 1180.59 959.263 1180.7 960.274L1183 980.5V982C1183 984.209 1181.21 986 1179 986L1156.5 984.5H1154.54C1153.27 984.5 1152.1 983.836 1151.45 982.751C1151.15 982.257 1150.98 981.7 1150.94 981.126Z" fill="white" stroke="white"/>
<path d="M1152.92 1012.74L1151.64 993.197C1151.57 992.019 1152.52 991.031 1153.7 991.068L1182.06 991.94C1183.14 991.974 1184 992.859 1184 993.939V1011V1014C1184 1015.38 1182.88 1016.5 1181.5 1016.5H1162.5H1156.93C1155.71 1016.5 1154.56 1015.94 1153.79 1014.99C1153.28 1014.35 1152.97 1013.56 1152.92 1012.74Z" fill="white" stroke="white"/>
<path d="M1111 1016.88V994.5C1111 993.395 1111.9 992.5 1113 992.5H1144.06C1145.12 992.5 1146 993.332 1146.06 994.393L1147 1012V1014.36C1147 1014.78 1146.93 1015.2 1146.79 1015.6C1146.29 1017.05 1144.95 1018.05 1143.42 1018.13L1116.74 1019.5H1113.62C1112.94 1019.5 1112.29 1019.24 1111.81 1018.77C1111.29 1018.28 1111 1017.6 1111 1016.88Z" fill="white" stroke="white"/>
</svg>
